# xmcd
#
# Track frame offsets:
# 150
# 11034
# 24010
# 37131
# 47721
# 61121
# 68812
# 82419
# 96440
# 108826
# 117977
# 132179
# 147573
# 163776
# 178186
# 193367
# 203539
# 217032
# 225790
# 235456
# 242200
# 253712
# 265243
# 270746
# 282682
# 316998
# 320556
#
# Disc length: 4415 seconds
#
# Revision: 0
# Processed by: cddbd v1.4PL0 Copyright (c) Steve Scherf et al.
# Submitted via: Audion 3.0.2 (http://www.panic.com/audion/)
#
DISCID=9e113d1b
DTITLE=Serge Gainsbourg - DE GAINSBOURG À GAINSBAR
DYEAR=1900
DGENRE=
TTITLE0=Par Hasard et pas rasé
TTITLE1=Des vents des pets des poum
TTITLE2=titicaca
TTITLE3=Pamela Popo
TTITLE4=La poupée qui fait
TTITLE5=l'Hippodame
TTITLE6=Sensuelle et sans suite
TTITLE7=Nazi Rock
TTITLE8=Tata Teutonne
TTITLE9=J'entends des voix off
TTITLE10=Eva
TTITLE11=Smoke gets in your eyes
TTITLE12=Zig Zig avec moi
TTITLE13=Est-ce est-ce si bon?
TTITLE14=Rock around the bunker
TTITLE15=S.S.in Uruguay
TTITLE16=L'homme à tête de chou
TTITLE17=Chez Max coiffeur pour hommes
TTITLE18=Marilou Reggae
TTITLE19=Transit à Marilou
TTITLE20=Flash Forward
TTITLE21=Aéroplanes
TTITLE22=Premiers Symptômes
TTITLE23=Ma Lou Marilou
TTITLE24=Variations sur Marilou
TTITLE25=Meurtre à l'extincteur
TTITLE26=Marilou sous la neige
EXTD=
EXTT0=
EXTT1=
EXTT2=
EXTT3=
EXTT4=
EXTT5=
EXTT6=
EXTT7=
EXTT8=
EXTT9=
EXTT10=
EXTT11=
EXTT12=
EXTT13=
EXTT14=
EXTT15=
EXTT16=
EXTT17=
EXTT18=
EXTT19=
EXTT20=
EXTT21=
EXTT22=
EXTT23=
EXTT24=
EXTT25=
EXTT26=
PLAYORDER=
